<svg width="24" height="38" viewBox="0 0 24 38" fill="none" xmlns="http://www.w3.org/2000/svg">
<mask id="mask0_18502_579" style="mask-type:alpha" maskUnits="userSpaceOnUse" x="0" y="0" width="24" height="38">
<rect width="24" height="38" fill="#D9D9D9"/>
</mask>
<g mask="url(#mask0_18502_579)">
<path d="M23.091 5.91156C22.7817 5.43802 22.33 5.42442 21.8152 5.40893C21.7569 5.40717 21.6978 5.40539 21.6379 5.40291C21.5924 5.40082 21.5421 5.40162 21.4896 5.40247C21.2808 5.40582 21.0366 5.40974 20.9136 5.23433C20.7709 5.03096 20.7845 4.63794 20.7956 4.31348C20.7992 4.21096 20.8025 4.11522 20.8005 4.03454C20.7805 3.28083 20.7387 2.4802 20.4477 2.21255C20.2283 2.01174 19.572 2.03956 18.9666 2.06521C18.7704 2.07353 18.5796 2.08162 18.4107 2.08162H5.52635C5.26694 2.08162 4.99501 2.0605 4.72782 2.03974C4.2072 1.9993 3.70459 1.96026 3.34768 2.08162C2.8297 2.25861 2.79462 3.18868 2.7616 4.06447L2.75982 4.11159C2.73209 4.83459 2.55291 5.39248 1.95908 5.33629C1.2684 5.27198 0.581145 5.25171 0.26887 5.8768C-0.0999345 6.6164 -0.0238728 7.39059 0.112366 8.77729C0.131826 8.97537 0.152515 9.18595 0.173311 9.41071H23.2902C23.3034 9.24642 23.3175 9.08425 23.3313 8.9247C23.4396 7.6771 23.5339 6.59008 23.091 5.91156Z" fill="#8047F8"/>
<path fill-rule="evenodd" clip-rule="evenodd" d="M1.97358 10.786C2.33462 15.6724 2.69172 20.5644 3.04883 25.4565L3.04905 25.4595C3.24294 28.1157 3.43684 30.772 3.63137 33.4274H4.36897C4.41923 33.843 4.47675 34.3562 4.53738 34.8972C4.66046 35.9954 4.79644 37.2087 4.91076 37.9542H4.99234C5.74365 37.6793 10.9376 35.4593 10.9399 26.6207C10.9389 26.5954 10.9398 26.5703 10.9424 26.5452H9.6592C9.59708 26.5446 9.53687 26.5239 9.48783 26.4862C9.43879 26.4485 9.40364 26.3959 9.38778 26.3365C9.26273 26.0277 9.16191 25.7097 9.0862 25.3855C8.33132 25.8119 7.73185 26.4629 7.37324 27.2458C7.03283 26.444 6.98827 25.5494 7.24736 24.7184C7.50645 23.8873 8.0527 23.1727 8.79066 22.6994C8.80017 20.1203 9.76582 17.6341 11.5048 15.7114L11.532 15.6876C11.5825 15.6439 11.6472 15.6196 11.7144 15.619C11.7532 15.6193 11.7915 15.6276 11.8269 15.6434C11.8628 15.6593 11.8948 15.6825 11.921 15.7114C13.6804 17.6367 14.6409 20.1468 14.6111 22.7412C15.3628 23.2013 15.9202 23.9154 16.1798 24.7509C16.4393 25.5864 16.3834 26.4867 16.0225 27.2846C15.6658 26.5004 15.0658 25.8488 14.3095 25.4243C14.2633 25.7385 14.1782 26.0459 14.0562 26.3395C14.014 26.4647 13.9295 26.5452 13.8451 26.5452H12.4766C12.4788 26.5602 12.4803 26.5753 12.4812 26.5904L12.4817 26.5939V26.6012C12.4822 26.6142 12.4822 26.6272 12.4818 26.6403C12.5005 35.7326 18.0227 37.7964 18.4882 37.9542H18.6474C18.6881 37.2381 18.8204 36.2499 18.9494 35.2865C19.0383 34.6226 19.1256 33.9705 19.1803 33.4274H19.9264C20.1652 30.0826 20.4109 26.7472 20.6565 23.4118L20.6566 23.41L20.6567 23.409C20.9709 19.1426 21.2851 14.8761 21.5851 10.5896H2.02136C1.96505 10.6006 1.96889 10.6928 1.97358 10.786ZM11.7144 15.619L11.7129 15.619H11.716L11.7144 15.619Z" fill="#8047F8"/>
<path d="M29.8524 7.43315C29.8524 6.22694 30.2679 5.29213 31.099 4.62872C31.9452 3.95023 33.2145 3.61098 34.9069 3.61098C36.0251 3.61098 36.9771 3.71652 37.7629 3.92761V7.04867C36.9167 6.79235 36.078 6.66419 35.2469 6.66419C34.4309 6.66419 33.9021 6.7622 33.6603 6.9582C33.4185 7.13913 33.2976 7.41053 33.2976 7.77239V15.3715C33.2976 16.0952 33.8643 16.4571 34.9976 16.4571C36.146 16.4571 37.0904 16.344 37.8309 16.1178V19.171C37.0149 19.3972 36.0251 19.5103 34.8616 19.5103C33.1692 19.5103 31.9074 19.1786 31.0764 18.5152C30.2604 17.8518 29.8524 16.9169 29.8524 15.7107V7.43315Z" fill="#403937"/>
<path d="M44.4518 9.5817C44.4518 9.00876 44.1345 8.72228 43.4999 8.72228C42.8652 8.72228 42.5479 9.00876 42.5479 9.5817V15.8691C42.5479 16.442 42.8652 16.7285 43.4999 16.7285C44.1345 16.7285 44.4518 16.442 44.4518 15.8691V9.5817ZM39.1933 9.46862C39.1933 8.32272 39.5484 7.43315 40.2586 6.79989C40.9839 6.15155 42.0643 5.82739 43.4999 5.82739C44.9354 5.82739 46.0082 6.15155 46.7184 6.79989C47.4438 7.43315 47.8064 8.32272 47.8064 9.46862V15.9821C47.8064 17.128 47.4438 18.0251 46.7184 18.6735C46.0082 19.3067 44.9354 19.6234 43.4999 19.6234C42.0643 19.6234 40.9839 19.3067 40.2586 18.6735C39.5484 18.0251 39.1933 17.128 39.1933 15.9821V9.46862Z" fill="#403937"/>
<path d="M50.0094 5.89524C50.0094 3.34712 51.3543 2.07307 54.044 2.07307C54.3916 2.07307 54.8071 2.11076 55.2906 2.18615V4.80965C55.0489 4.77949 54.8222 4.76442 54.6107 4.76442C53.84 4.76442 53.4547 5.12628 53.4547 5.85V6.05355H55.2906V8.72228H53.4547V19.3972H50.0094V8.72228H48.7175V6.05355H50.0094V5.89524Z" fill="#403937"/>
<path d="M56.6942 5.89524C56.6942 3.34712 58.039 2.07307 60.7287 2.07307C61.0763 2.07307 61.4918 2.11076 61.9754 2.18615V4.80965C61.7336 4.77949 61.5069 4.76442 61.2954 4.76442C60.5247 4.76442 60.1394 5.12628 60.1394 5.85V6.05355H61.9754V8.72228H60.1394V19.3972H56.6942V8.72228H55.4022V6.05355H56.6942V5.89524Z" fill="#403937"/>
<path d="M62.7669 15.5977V9.46862C62.7669 8.32272 63.122 7.43315 63.8322 6.79989C64.5424 6.15155 65.6153 5.82739 67.0508 5.82739C69.8161 5.82739 71.1987 7.04113 71.1987 9.46862V14.0597H66.0535V15.3263C66.0535 15.7786 66.1744 16.1028 66.4161 16.2988C66.673 16.4797 67.2246 16.5702 68.0708 16.5702C68.9321 16.5702 69.869 16.4194 70.8814 16.1178V19.1032C69.8236 19.3897 68.6903 19.5329 67.4814 19.5329C64.3384 19.5329 62.7669 18.2212 62.7669 15.5977ZM66.0535 11.4589H68.0481V9.51385C68.0481 8.94091 67.7157 8.65443 67.0508 8.65443C66.3859 8.65443 66.0535 8.94091 66.0535 9.51385V11.4589Z" fill="#403937"/>
<path d="M72.5505 15.5977V9.46862C72.5505 8.32272 72.9056 7.43315 73.6158 6.79989C74.326 6.15155 75.3989 5.82739 76.8344 5.82739C79.5997 5.82739 80.9823 7.04113 80.9823 9.46862V14.0597H75.8371V15.3263C75.8371 15.7786 75.958 16.1028 76.1997 16.2988C76.4566 16.4797 77.0082 16.5702 77.8544 16.5702C78.7157 16.5702 79.6525 16.4194 80.665 16.1178V19.1032C79.6072 19.3897 78.4739 19.5329 77.2651 19.5329C74.122 19.5329 72.5505 18.2212 72.5505 15.5977ZM75.8371 11.4589H77.8317V9.51385C77.8317 8.94091 77.4993 8.65443 76.8344 8.65443C76.1695 8.65443 75.8371 8.94091 75.8371 9.51385V11.4589Z" fill="#403937"/>
<path d="M35.3079 27.7247C35.3079 26.6112 34.719 26.0545 33.5412 26.0545H31.6628V36.2052H33.5412C34.719 36.2052 35.3079 35.6362 35.3079 34.498V27.7247ZM30.3423 24.904H33.6155C34.6074 24.904 35.3575 25.1576 35.8659 25.6648C36.3742 26.1721 36.6284 26.8525 36.6284 27.7061V34.5351C36.6284 35.4135 36.3804 36.1063 35.8845 36.6135C35.3885 37.1207 34.6446 37.3743 33.6527 37.3743H30.3423V24.904Z" fill="#403937"/>
<path d="M38.8014 34.6836V29.5247C38.8014 28.6463 39.0494 27.9474 39.5453 27.4278C40.0537 26.8958 40.8162 26.6298 41.8329 26.6298C42.8496 26.6298 43.5997 26.8958 44.0832 27.4278C44.5791 27.9474 44.8271 28.6463 44.8271 29.5247V32.7536H40.1033V34.6279C40.1033 35.1846 40.2769 35.599 40.624 35.8712C40.9712 36.1434 41.5105 36.2795 42.242 36.2795C42.9735 36.2795 43.7298 36.1681 44.511 35.9454V37.1702C43.891 37.3681 43.1533 37.4671 42.2978 37.4671C39.9669 37.4671 38.8014 36.5393 38.8014 34.6836ZM40.1033 31.6588H43.5625V29.5247C43.5625 28.3618 42.9859 27.7803 41.8329 27.7803C40.6798 27.7803 40.1033 28.3618 40.1033 29.5247V31.6588Z" fill="#403937"/>
<path d="M47.0876 24.0133H48.4081V37.3743H47.0876V24.0133Z" fill="#403937"/>
<path d="M51.6252 25.6277C51.0921 25.6277 50.8255 25.3432 50.8255 24.7741C50.8255 24.205 51.0921 23.9205 51.6252 23.9205C52.1707 23.9205 52.4435 24.205 52.4435 24.7741C52.4435 25.3432 52.1707 25.6277 51.6252 25.6277ZM50.9743 26.8896H52.2947V37.3743H50.9743V26.8896Z" fill="#403937"/>
<path d="M59.1012 26.8154H60.4403L58.0969 37.3743H56.2372L53.8938 26.8154H55.2515L56.2744 31.6588L57.1857 36.4465C57.5576 34.3928 58.1961 31.1825 59.1012 26.8154Z" fill="#403937"/>
<path d="M61.8489 34.6836V29.5247C61.8489 28.6463 62.0969 27.9474 62.5928 27.4278C63.1012 26.8958 63.8637 26.6298 64.8804 26.6298C65.897 26.6298 66.6471 26.8958 67.1307 27.4278C67.6266 27.9474 67.8746 28.6463 67.8746 29.5247V32.7536H63.1508V34.6279C63.1508 35.1846 63.3243 35.599 63.6715 35.8712C64.0187 36.1434 64.558 36.2795 65.2895 36.2795C66.021 36.2795 66.7773 36.1681 67.5584 35.9454V37.1702C66.9385 37.3681 66.2008 37.4671 65.3453 37.4671C63.0144 37.4671 61.8489 36.5393 61.8489 34.6836ZM63.1508 31.6588H66.6099V29.5247C66.6099 28.3618 66.0334 27.7803 64.8804 27.7803C63.7273 27.7803 63.1508 28.3618 63.1508 29.5247V31.6588Z" fill="#403937"/>
<path d="M73.5571 26.7597H74.0221V28.0216H73.3897C72.9434 28.0216 72.5404 28.1391 72.1809 28.3742C72.0693 28.4484 71.8275 28.6154 71.4556 28.8752V37.3743H70.1351V26.8154H71.3998V27.6133C71.437 27.5886 71.5299 27.5205 71.6787 27.4092C71.8399 27.2979 71.9329 27.236 71.9577 27.2236C71.9949 27.1989 72.0755 27.1494 72.1995 27.0752C72.3358 27.0009 72.435 26.9576 72.497 26.9453C72.5714 26.9205 72.6706 26.8896 72.7946 26.8525C72.9806 26.7906 73.2347 26.7597 73.5571 26.7597Z" fill="#403937"/>
<path d="M79.6796 26.8154H81L78.0988 40.1393H76.8341L77.4106 37.3743H76.7597L74.4536 26.8154H75.7926L76.9085 32.067L77.7268 36.4465C77.9748 34.9867 78.2475 33.5268 78.5451 32.067L79.6796 26.8154Z" fill="#403937"/>
</g>
</svg>
